<svg version="1.0" xmlns="http://www.w3.org/2000/svg"
 width="24.000000pt" height="24.000000pt" viewBox="0 0 24.000000 24.000000"
 preserveAspectRatio="xMidYMid meet">

<g transform="translate(0.000000,24.000000) scale(0.100000,-0.100000)"
fill="#000000" stroke="none">
<path d="M52 127 c-27 -28 -28 -58 -4 -80 27 -24 55 -21 83 9 25 28 23 28 -24
4 -25 -12 -30 -12 -45 4 -16 16 -16 18 1 48 22 38 17 45 -11 15z"/>
<path d="M91 107 c-6 -8 -8 -17 -4 -20 7 -8 33 11 33 24 0 13 -16 11 -29 -4z"/>
</g>
</svg>
